Coordinates
version=1
nRows=13
nColumns=36
inDegrees=yes

Units are S.I. units (second, meters, Newtons, ...)
If the header above contains a line with 'inDegrees', this indicates whether rotational values are in degrees (yes) or radians (no).

endheader
time	pelvis_tilt	pelvis_list	pelvis_rotation	pelvis_tx	pelvis_ty	pelvis_tz	hip_flexion_r	hip_adduction_r	hip_rotation_r	knee_angle_r	knee_angle_r_beta	ankle_angle_r	subtalar_angle_r	mtp_angle_r	hip_flexion_l	hip_adduction_l	hip_rotation_l	knee_angle_l	knee_angle_l_beta	ankle_angle_l	subtalar_angle_l	mtp_angle_l	lumbar_extension	lumbar_bending	lumbar_rotation	arm_flex_r	arm_add_r	arm_rot_r	elbow_flex_r	pro_sup_r	arm_flex_l	arm_add_l	arm_rot_l	elbow_flex_l	pro_sup_l
      1.77000000	    -24.06417306	      0.34806208	     -0.31657398	     -0.37424120	      0.68130928	     -0.57832748	     80.21862834	     -6.85380986	      2.29172492	     86.09494084	      1.50264019	     28.68575516	    -15.90478447	     -7.21580831	     80.38926598	    -12.94387526	      2.81229794	     84.24935049	      1.47042856	     24.78721970	    -10.73350101	     -7.21580831	    -19.97490294	      1.16334349	     -2.34821656	     -9.02014426	     -2.67908235	    -22.27864361	     22.46736921	     98.02826583	     -3.88521745	     -4.73073914	    -27.17998997	     26.49994985	    100.81268135
      1.78000000	    -24.21781494	      0.12509321	     -0.43673577	     -0.37057160	      0.67253697	     -0.57793555	     81.28789799	     -6.74932266	      2.35721331	     88.27505374	      1.54069034	     30.18040451	    -14.36300604	     -7.22829868	     81.43739994	    -13.58187988	      3.22964131	     86.26121816	      1.50554227	     27.01804909	     -8.05919543	     -7.22829868	    -20.62257109	      1.47803667	     -2.46676368	     -5.48086464	     -3.89866616	    -17.33605997	     23.35194382	     98.63158204	     -0.37427029	     -5.82832393	    -24.18088505	     26.66914820	    101.03851532
      1.79000000	    -24.44779279	      0.07072567	     -0.63945490	     -0.36718282	      0.66548451	     -0.57780822	     82.21796321	     -6.60236080	      2.55701930	     89.86814681	      1.56849505	     30.87443754	    -13.94423741	     -7.24928827	     82.41005842	    -14.09370211	      3.46036353	     87.94761658	      1.53497548	     27.91195706	     -7.27819465	     -7.24928827	    -21.08684548	      1.60093907	     -2.99379939	     -0.89533750	     -5.41977150	    -10.96160268	     22.71953692	     98.49176038	      3.27617494	     -7.13814716	    -21.16692501	     26.48015155	    100.42541367
      1.80000000	    -24.67937805	      0.12539821	     -0.82373308	     -0.36394786	      0.65986318	     -0.57770130	     82.96352149	     -6.46887583	      2.76464358	     91.06983164	      1.58946841	     31.09656302	    -14.12106700	     -7.25008136	     83.23654499	    -14.40301898	      3.67680475	     89.37344840	      1.55986094	     28.07277599	     -7.32156713	     -7.25008136	    -21.52548052	      1.64026878	     -3.25621436	      3.28354338	     -6.08220554	    -10.62639697	     24.15529085	     98.55903629	      7.12607101	     -8.04289412	    -20.95604951	     27.54393545	    100.48950571
      1.81000000	    -24.55819531	      0.03028685	     -1.13940315	     -0.36060307	      0.65614733	     -0.57681509	     83.05643723	     -6.06271900	      2.73803731	     91.90941388	      1.60412189	     31.63733851	    -14.36030136	     -7.26900271	     83.52907552	    -15.06421548	      3.92566044	     90.54038439	      1.58022781	     29.14333647	     -5.80120410	     -7.26900271	    -22.25898864	      1.75844503	     -3.41840139	      7.77203309	     -7.51380107	     -4.64663639	     25.07132203	     97.91838519	     11.34675827	     -9.57345144	    -18.42101062	     27.51381562	     99.60150472
      1.82000000	    -25.05720290	      0.10257779	     -1.21619078	     -0.35763598	      0.65237036	     -0.57594404	     83.77059009	     -5.86134906	      2.88598869	     92.60394586	      1.61624376	     31.80559393	    -14.48181628	     -7.26928794	     84.27192574	    -15.25970939	      4.03896371	     91.23016693	      1.59226679	     29.25200088	     -5.86136150	     -7.26928794	    -22.01592268	      1.73262999	     -3.55453462	     11.87444701	     -8.01554377	     -4.56495932	     26.48123380	     97.99024348	     15.35332910	    -10.62087803	    -18.28582782	     28.79484315	     99.71027623
      1.83000000	    -24.87339248	      0.12501184	     -1.08108714	     -0.35429126	      0.65003684	     -0.57494938	     83.62681876	     -5.71941858	      3.09798015	     93.39259301	      1.63000824	     32.46410444	    -15.03332485	     -7.27200173	     84.24141893	    -15.13833658	      4.34530094	     91.95470329	      1.60491234	     29.26874219	     -5.88690870	     -7.27200173	    -22.32252445	      1.78147346	     -3.86627427	     15.45371219	     -8.66800035	     -3.62102542	     29.64155271	     98.07607899	     19.47232538	    -11.80245710	    -17.94912078	     30.08120334	     99.70632566
      1.84000000	    -25.05664977	      0.11137598	     -0.57629930	     -0.35105595	      0.64805210	     -0.57455992	     83.78634685	     -6.03590819	      3.12711843	     94.03678180	      1.64125146	     32.82672684	    -15.20068618	     -7.27603255	     84.47353929	    -14.52323259	      4.78665490	     92.32051557	      1.61129696	     29.23246619	     -6.00272339	     -7.27603255	    -21.93781336	      1.98333316	     -4.19036738	     18.56264951	     -9.53419808	     -3.19812679	     33.04630242	     98.06018398	     23.57546804	    -12.65951058	    -17.72903663	     31.70229115	     99.65265024
      1.85000000	    -25.15625198	      0.22221226	      0.01615142	     -0.34753948	      0.64673558	     -0.57427923	     83.84487469	     -6.51952708	      3.24074971	     94.68893133	      1.65263362	     33.08187497	    -15.35710583	     -7.27798088	     84.53209432	    -14.02592034	      4.87318130	     92.63984578	      1.61687033	     29.15717381	     -5.80856382	     -7.27798088	    -21.29166338	      2.04683055	     -4.68984292	     21.89260963	    -10.15743752	     -3.41402724	     35.59731256	     98.10759904	     27.54194570	    -13.41595785	    -17.71207668	     33.28272578	     99.71097442
      1.86000000	    -25.15878896	      0.46156337	      0.16724901	     -0.34360288	      0.64596813	     -0.57329741	     83.79834967	     -6.54248323	      3.55627636	     95.26701352	      1.66272305	     33.47368563	    -15.18773106	     -7.28902112	     84.39227715	    -14.25863680	      4.53711947	     93.05168864	      1.62405834	     29.53104006	     -4.97189668	     -7.28902112	    -20.66001415	      1.81180411	     -4.25230462	     23.79533734	    -10.69437046	     -6.63919317	     41.26573769	     97.93849395	     31.87588342	    -13.41179352	    -18.66140784	     35.00380236	     99.60263327
      1.87000000	    -24.84198302	      0.66352880	      0.34609572	     -0.33947698	      0.64672147	     -0.57238663	     83.24504299	     -6.59942912	      3.70648489	     95.57658457	      1.66812609	     33.65522911	    -15.53244370	     -7.29206451	     83.79704842	    -14.28048617	      4.32670403	     93.26877141	      1.62784715	     29.46140889	     -4.66066213	     -7.29206451	    -20.12746163	      1.69348765	     -4.45697897	     26.70675969	    -11.37611115	     -7.03827155	     45.14405617	     98.16453488	     35.92216746	    -13.87825355	    -19.19848252	     36.26876331	     99.68229175
      1.88000000	    -24.53487743	      0.63903271	      0.45962281	     -0.33532546	      0.64835540	     -0.57116868	     82.52465089	     -6.39269822	      3.56063441	     95.63421544	      1.66913194	     33.38657399	    -16.57616778	     -7.30342874	     83.19124857	    -14.24323928	      4.53012951	     93.32507477	      1.62882983	     29.47395231	     -4.50310318	     -7.30342874	    -19.56597791	      1.68549277	     -3.61862463	     28.46839177	    -12.34397806	     -9.65067021	     51.21406338	     98.55394631	     40.42693418	    -13.35083129	    -20.11996620	     37.75144116	     99.91636260
      1.89000000	    -23.94175114	      0.61895517	      0.60921694	     -0.33094959	      0.65152717	     -0.57021277	     81.34423849	     -6.23002644	      3.38965634	     95.49710025	      1.66673883	     33.33675666	    -17.46744041	     -7.30801574	     82.12199876	    -14.12729003	      4.67329162	     93.14997130	      1.62577370	     29.23664926	     -4.49227817	     -7.30801574	    -19.18246159	      1.75734139	     -3.52958078	     31.20000216	    -13.78478958	     -9.02499877	     56.03712827	     99.06665591	     44.06208632	    -13.78784943	    -19.30079441	     39.95675535	    100.22148143
